<svg width="182" height="63" viewBox="0 0 182 63" fill="none" xmlns="http://www.w3.org/2000/svg">
<path d="M68.3057 23.2471C75.6251 23.2471 80.4492 28.4796 80.4492 35.5543C80.4492 42.6291 75.6251 47.8615 68.3057 47.8615H58.44V23.2471H68.3057ZM67.8835 43.5374C72.3109 43.5374 75.126 40.4158 75.126 35.5671C75.126 30.7185 72.3109 27.5969 67.8835 27.5969H63.6863V43.5502H67.8835V43.5374Z" fill="#212121"/>
<path d="M85.6314 28.147C87.2181 28.147 88.5105 26.8933 88.5105 25.3453C88.5105 23.7973 87.2181 22.5435 85.6314 22.5435C84.0447 22.5435 82.7523 23.7973 82.7523 25.3453C82.7523 26.8933 84.0447 28.147 85.6314 28.147Z" fill="#212121"/>
<path d="M88.1009 30.2836H83.1745V47.8745H88.1009V30.2836Z" fill="#212121"/>
<path d="M107.5 39.4435C107.5 39.7122 107.5 39.9936 107.475 40.2623H95.1264C95.1392 40.3519 95.152 40.4542 95.1775 40.5438C95.6126 42.9617 97.2249 44.3434 99.5154 44.3434C101.192 44.3434 103.022 43.8061 104.89 42.8977L106.041 45.9937C104.045 47.5161 101.576 48.3733 99.0548 48.3733C93.6292 48.3733 90.0463 44.2282 90.0463 39.0853C90.0463 33.9424 93.5908 29.7845 98.9652 29.7973C104.391 29.7973 107.539 33.6609 107.513 39.4563L107.5 39.4435ZM95.1903 37.2687H102.638C102.331 35.1578 101.32 33.8017 99.0675 33.8017C96.9818 33.8017 95.6254 35.1705 95.1903 37.2687Z" fill="#212121"/>
<path d="M122.121 46.6376C120.636 47.3796 118.909 47.8274 117.271 47.8402C114.225 47.8402 111.538 46.2922 111.538 42.1599V33.5628H108.16V30.4796L111.436 29.7631H111.538V25.004H116.465V29.7631H121.199V33.5756H116.465V41.533C116.465 43.2345 117.412 43.7974 118.73 43.7974C119.485 43.7974 120.329 43.6056 121.122 43.3625L122.121 46.6504V46.6376Z" fill="#212121"/>
<path d="M142.305 39.0725C142.305 44.241 139.183 48.3605 134.679 48.3605C132.682 48.3605 130.699 47.5545 129.01 45.9553V47.8615H124.084V23.2471H129.01V32.1897C130.686 30.6033 132.695 29.7845 134.615 29.7845C139.196 29.7717 142.292 33.904 142.305 39.0725ZM133.629 44.2027C135.971 44.2027 137.327 42.079 137.327 39.0725C137.327 36.0661 135.971 33.9424 133.629 33.9424C132.209 33.9424 130.443 34.6332 129.01 36.0533V42.0789C130.443 43.499 132.209 44.1899 133.629 44.1899V44.2027Z" fill="#212121"/>
<path d="M162.83 39.0725C162.83 44.2026 159.132 48.3605 153.451 48.3605C147.769 48.3605 144.071 44.2154 144.071 39.0725C144.071 33.9296 147.795 29.7462 153.451 29.7845C159.145 29.7845 162.83 33.9296 162.83 39.0725ZM149.061 39.0725C149.061 42.0406 150.763 44.1387 153.451 44.1387C156.138 44.1387 157.84 42.0662 157.84 39.0725C157.84 36.0789 156.163 34.0063 153.451 34.0063C150.738 34.0063 149.036 36.1045 149.061 39.0725Z" fill="#212121"/>
<path d="M181.167 47.8616H175.805L171.57 41.9383L167.449 47.8616H162.101L168.627 38.7272L162.523 30.2836H167.885L171.698 35.6056L175.396 30.2836H180.732L174.628 38.8295L181.154 47.8616H181.167Z" fill="#212121"/>
<path d="M20.8066 59.1581V36.2964C20.8066 34.7995 21.6127 33.4051 22.9051 32.6503L42.7134 21.213C43.8523 20.5605 45.2087 20.471 46.3987 20.9571C46.2451 20.842 46.0916 20.7269 45.9252 20.6373L26.1169 9.20005C24.8118 8.44524 23.2122 8.44524 21.9071 9.20005L2.09875 20.6373C0.793553 21.3921 0.000198364 22.7738 0.000198364 24.2834V47.1451C0.000198364 48.6419 0.806349 50.0364 2.09875 50.7912L21.9071 62.2285C22.0734 62.3308 22.2525 62.4076 22.4189 62.4844C21.3952 61.6912 20.7938 60.4758 20.7938 59.1581H20.8066Z" fill="#05E279"/>
<path d="M28.7148 6.84603L36.418 11.2469C36.9299 11.5412 37.5441 11.5284 38.0431 11.2469L45.708 6.78207C45.708 6.78207 45.7464 6.75648 45.772 6.74369C46.6037 6.20636 46.6037 4.96541 45.772 4.44088C45.7464 4.44088 45.7336 4.4153 45.708 4.4025L38.6957 0.398185C37.7616 -0.139136 36.61 -0.126343 35.6887 0.398185L28.7148 4.46647C28.7148 4.46647 28.6764 4.49206 28.6508 4.50485C27.8191 5.04217 27.8191 6.28313 28.6508 6.80766C28.6764 6.80766 28.6892 6.83324 28.7148 6.84603Z" fill="#05E279"/>
<path d="M46.3986 20.9699C45.2085 20.4838 43.8393 20.5733 42.7133 21.2258L22.905 32.663C21.5998 33.4178 20.8064 34.7995 20.8064 36.3091V59.1708C20.8064 60.4758 21.4207 61.7039 22.4315 62.4971C23.6216 62.9833 24.9908 62.8937 26.1168 62.2412L27.5628 61.4097C27.5628 60.1815 27.5628 58.9662 27.5628 57.738C27.5628 56.8808 27.7675 56.0749 28.1258 55.32C28.4201 54.6932 28.7784 54.1303 29.239 53.6313C29.3158 53.5546 29.367 53.4778 29.367 53.3499C29.367 52.6207 29.367 51.9042 29.367 51.175C29.367 51.0471 29.3542 50.9959 29.2135 51.0471C28.7784 51.2006 28.3305 51.2646 27.8699 51.2006C26.859 51.0471 26.2576 50.3818 25.9377 49.3711C25.8481 49.0897 25.8353 48.7954 25.7585 48.514V39.226C25.8609 38.9446 25.9505 38.6631 26.1296 38.42C26.2832 38.2153 26.4495 38.0234 26.6798 37.8955C27.1661 37.6268 27.55 37.8699 27.5628 38.4584C27.5628 39.3539 27.5628 40.2495 27.5628 41.1578C27.5628 42.6418 27.5628 44.1387 27.5628 45.6227C27.5628 45.7762 27.6225 45.8146 27.7419 45.7378C28.2282 45.4436 28.7144 45.1493 29.2007 44.8679C29.3158 44.8039 29.367 44.7144 29.367 44.5736C29.367 42.2452 29.367 39.9296 29.3542 37.6013C29.3542 36.9104 29.5973 36.3731 30.058 35.9381C30.1859 35.8102 30.3395 35.7206 30.5314 35.695C30.8769 35.6439 31.1073 35.8486 31.1457 36.2196C31.1457 36.3091 31.1457 36.3987 31.1457 36.501C31.1457 38.8294 31.1457 41.145 31.1457 43.4734C31.1457 43.6269 31.2054 43.6653 31.3248 43.5885C31.8111 43.2943 32.2845 43 32.7708 42.7314C32.8859 42.6674 32.9243 42.5907 32.9243 42.4499C32.9243 40.096 32.9115 37.7292 32.9243 35.3752C32.9243 34.6204 33.257 34.0575 33.8584 33.6993C34.2679 33.4562 34.6518 33.6993 34.6646 34.1982C34.6774 34.5564 34.6646 34.9147 34.6646 35.2729C34.6646 37.6268 34.6646 39.9936 34.6774 42.3476C34.6774 43.7165 34.3703 44.9958 33.8328 46.2112C33.2698 47.4777 32.5148 48.5907 31.5551 49.5375C31.4784 49.6142 31.4144 49.691 31.3248 49.7549C31.1713 49.8573 31.1457 49.998 31.1457 50.1771C31.1457 50.8552 31.1457 51.546 31.1457 52.2241C31.1457 52.3648 31.184 52.4032 31.312 52.3904C31.8366 52.3392 32.2717 52.4927 32.5916 52.9661C32.7836 53.2475 32.8731 53.5801 32.9115 53.9128C32.9243 54.0663 32.9371 54.2198 32.9371 54.3861C32.9371 55.6911 32.9371 57.0088 32.9371 58.3137L38.2091 55.2689C38.2091 54.0023 38.2091 52.7358 38.1963 51.4692C38.1707 50.0108 38.6185 48.7443 39.4247 47.6184C39.5527 47.4393 39.7062 47.273 39.847 47.0939C39.8982 47.03 39.9238 46.966 39.9238 46.8764C39.9238 46.1344 39.9238 45.4052 39.9238 44.6632C39.9238 44.5608 39.8982 44.5097 39.7958 44.5353C38.6313 44.8167 37.7356 44.1642 37.1982 43.1664C36.8399 42.5139 36.648 41.7847 36.5456 41.0427C36.3664 39.8145 36.4176 38.5991 36.5968 37.371C36.9039 35.324 37.5565 33.4178 38.6697 31.7291C39.3095 30.7696 40.0517 29.9252 41.0754 29.4519C41.8687 29.0681 42.6749 29.0297 43.4427 29.5926C43.8777 29.9124 44.1848 30.3602 44.4152 30.8719C44.7607 31.614 44.9142 32.4072 45.0038 33.2259C45.1061 34.3134 45.0678 35.388 44.8886 36.4626C44.5303 38.7399 43.7754 40.8252 42.4062 42.629C42.2142 42.8721 42.0223 43.1024 41.792 43.3199C41.6896 43.4222 41.6384 43.5246 41.6384 43.6781C41.6384 44.3817 41.6384 45.0854 41.6384 45.7762C41.6384 45.9041 41.664 45.9553 41.792 45.9425C42.5981 45.8402 43.1356 46.3647 43.3019 47.1963C43.3531 47.4265 43.3659 47.6568 43.3659 47.8871C43.3659 49.3583 43.3659 50.8168 43.3659 52.288L45.9123 50.8168C47.2175 50.062 48.0109 48.6803 48.0109 47.1707V24.309C48.0109 23.004 47.3966 21.7759 46.3858 20.9827L46.3986 20.9699Z" fill="#3BF296"/>
</svg>
